<?xml version="1.0" encoding="UTF-8"?>
<svg version="1.1" xmlns="http://www.w3.org/2000/svg" width="48" height="48">
<path d="M0 0 C4.25662554 3.08107639 7.4684332 7.12763904 8.75390625 12.26953125 C9.52614078 19.12459776 8.85521494 24.60341555 4.75390625 30.26953125 C0.1821785 35.19196688 -4.4258837 37.33061673 -11.05859375 37.64453125 C-16.93937652 37.50451261 -21.44629977 35.86984882 -25.78125 31.84375 C-30.5129015 26.5051228 -31.72452185 21.80101126 -31.55859375 14.83203125 C-30.884261 9.30250271 -28.4552296 5.06971496 -24.30859375 1.39453125 C-16.69320478 -3.8896162 -8.21243567 -4.69519049 0 0 Z M-24.68359375 7.95703125 C-26.96796351 12.79989514 -28.11271826 17.21750579 -26.6171875 22.484375 C-24.50189616 27.23714257 -22.04072179 30.00791425 -17.24609375 32.26953125 C-12.44211377 33.6331842 -8.53958375 33.756997 -3.93359375 31.70703125 C0.46435866 29.13133801 2.93723741 26.14655417 4.3515625 21.1640625 C5.25209712 16.08434782 4.65335467 12.45328332 2.04296875 7.99609375 C-1.04717263 3.85717711 -4.65775439 2.14943479 -9.62109375 1.26953125 C-16.05278595 0.82484427 -20.43533805 3.27305701 -24.68359375 7.95703125 Z " fill="#22D3A4" transform="translate(35.24609375,6.73046875)"/>
<path d="M0 0 C1.32 0 2.64 0 4 0 C4 0.66 4 1.32 4 2 C6.475 2.99 6.475 2.99 9 4 C9 5.32 9 6.64 9 8 C7.68 8 6.36 8 5 8 C4.67 8.66 4.34 9.32 4 10 C4.804375 10.309375 5.60875 10.61875 6.4375 10.9375 C9 12 9 12 10 13 C10.3125 15.875 10.3125 15.875 10 19 C8.125 20.875 8.125 20.875 6 22 C5.34 22 4.68 22 4 22 C4 22.66 4 23.32 4 24 C2.68 24 1.36 24 0 24 C0 23.34 0 22.68 0 22 C-2.475 21.01 -2.475 21.01 -5 20 C-5 18.68 -5 17.36 -5 16 C-3.68 16 -2.36 16 -1 16 C-0.67 15.34 -0.34 14.68 0 14 C-0.804375 13.690625 -1.60875 13.38125 -2.4375 13.0625 C-5 12 -5 12 -6 11 C-6.3125 8.125 -6.3125 8.125 -6 5 C-4.125 3.125 -4.125 3.125 -2 2 C-1.34 2 -0.68 2 0 2 C0 1.34 0 0.68 0 0 Z M-1 7 C0 9 0 9 0 9 Z M4 15 C5 17 5 17 5 17 Z " fill="#23D3A4" transform="translate(22,12)"/>
</svg>
